<?xml version="1.0" encoding="UTF-8" standalone="no"?>
<!DOCTYPE svg PUBLIC "-//W3C//DTD SVG 1.1//EN" "http://www.w3.org/Graphics/SVG/1.1/DTD/svg11.dtd">
<!-- Created with Vectornator (http://vectornator.io/) -->
<svg height="100%" stroke-miterlimit="10" style="fill-rule:nonzero;clip-rule:evenodd;stroke-linecap:round;stroke-linejoin:round;" version="1.1" viewBox="0 0 400 400" width="100%" xml:space="preserve" xmlns="http://www.w3.org/2000/svg" xmlns:vectornator="http://vectornator.io" xmlns:xlink="http://www.w3.org/1999/xlink">
<defs/>
<g id="Layer-1" vectornator:layerName="Layer 1">
<g opacity="1">
<path d="M41.3957 58.9026C41.3957 218.824 41.3957 218.824 41.3957 378.746C201.318 378.746 201.318 378.746 361.239 378.746C361.239 218.824 361.239 218.824 361.239 58.9026C201.318 58.9026 201.318 58.9026 41.3957 58.9026Z" fill="#1818cf" fill-rule="nonzero" opacity="0" stroke="#c5c5ef" stroke-linecap="round" stroke-linejoin="round" stroke-width="1"/>
<path d="M5 200C5 92.3045 92.3045 5 200 5C307.696 5 395 92.3045 395 200C395 307.696 307.696 395 200 395C92.3045 395 5 307.696 5 200Z" fill="#6c757d" fill-rule="nonzero" opacity="1" stroke="#c5c5ef" stroke-linecap="round" stroke-linejoin="round" stroke-width="1"/>
<path d="M113.466 94.3262C113.39 138.282 113.542 182.238 113.466 226.194C113.455 232.929 136.756 252.639 137.421 252.659C144.643 252.878 151.88 252.298 159.095 252.659C160.675 252.738 176.954 294.862 177.575 294.866C188.906 294.941 213.165 295.78 213.85 294.409C214.236 293.637 197.606 254.268 197.88 254.256C203.046 254.034 208.225 254.404 213.394 254.256C213.684 254.248 220.411 247.01 221.379 246.043C225.692 241.729 229.906 237.515 234.383 233.038C235.415 232.006 238.113 229.981 238.49 228.475C238.964 226.58 238.718 224.714 238.718 222.772C238.718 206.725 239.541 164.617 238.033 164.595C227.92 164.445 217.798 164.454 207.69 164.823C207.26 164.839 206.786 165.305 206.778 165.736C206.479 181.703 206.778 197.676 206.778 213.646C206.778 214.102 206.957 214.596 206.778 215.015C206.405 215.884 200.816 221.171 200.618 221.175C184.27 221.475 167.915 221.4 151.566 221.175C151.179 221.17 145.866 217.143 145.863 215.699C145.787 179.576 145.711 143.453 145.863 107.33C145.869 105.938 150.308 102.774 151.795 102.768C167.917 102.694 184.039 102.539 200.161 102.539C200.699 102.539 201.233 102.651 201.758 102.768C207.208 103.979 206.508 112.636 206.321 116C206.303 116.322 205.959 116.68 205.637 116.684C190.733 116.909 175.824 116.46 160.92 116.684C160.598 116.689 160.238 117.046 160.236 117.369C160.01 146.647 160.085 175.926 160.236 205.205C160.237 205.42 160.477 205.658 160.692 205.661C170.806 205.811 180.922 205.811 191.035 205.661C191.601 205.653 191.491 205.027 191.492 204.748C191.567 186.649 191.569 168.549 191.72 150.45C191.722 150.256 192.236 149.539 192.404 149.537C210.807 149.386 229.213 149.312 247.615 149.537C248.746 149.551 251.84 152.645 252.863 153.872C252.96 153.989 252.862 154.176 252.863 154.328C252.938 180.565 253.167 206.802 253.091 233.038C253.087 234.564 225.202 261.154 224.345 263.154C223.79 264.448 251.214 329.474 252.407 329.772C254.657 330.334 285.382 329.491 286.4 330C288.716 327.684 264.417 273.311 264.042 270.682C263.601 267.598 285.253 246.967 285.259 246.043C285.487 211.441 285.335 176.839 285.259 142.237C285.259 141.923 285.171 141.605 285.031 141.324C284.201 139.663 271.002 127.846 266.323 122.616C265.204 121.365 261.736 116.724 259.935 116.684C253.169 116.537 246.392 116.975 239.63 116.684C239.201 116.666 238.735 116.202 238.718 115.772C238.426 108.477 238.867 101.169 238.718 93.8699C238.708 93.4007 216.058 71.9768 215.675 70.8273C215.096 70.8273 214.657 70.148 214.078 70.1429C188.603 69.9167 163.125 69.9917 137.65 70.1429C136.238 70.1512 113.47 92.3138 113.466 94.3262Z" fill="#f7f7fc" fill-rule="nonzero" opacity="1" stroke="none"/>
</g>
</g>
</svg>
